<?xml version="1.0" encoding="utf-8"?>
<!-- Generator: Adobe Illustrator 24.0.1, SVG Export Plug-In . SVG Version: 6.00 Build 0)  -->
<svg version="1.1" id="Layer_1" xmlns="http://www.w3.org/2000/svg" xmlns:xlink="http://www.w3.org/1999/xlink" x="0px" y="0px"
	 viewBox="0 0 28 28" style="enable-background:new 0 0 28 28;" xml:space="preserve">
<style type="text/css">
	.st0{fill:#212121;}
</style>
<g>
	<path class="st0" d="M22,19.1h-4v-2.2h4c1.6,0,2.9-1.3,2.9-2.9V6c0-1.6-1.3-2.9-2.9-2.9h-8c-1.6,0-2.9,1.3-2.9,2.9v4H8.9V6
		c0-2.8,2.3-5.1,5.1-5.1h8c2.8,0,5.1,2.3,5.1,5.1v8C27.1,16.8,24.8,19.1,22,19.1z"/>
</g>
<g>
	<path class="st0" d="M14,27.1H6c-2.8,0-5.1-2.3-5.1-5.1v-8c0-2.8,2.3-5.1,5.1-5.1h8c2.8,0,5.1,2.3,5.1,5.1v8
		C19.1,24.8,16.8,27.1,14,27.1z M6,11.1c-1.6,0-2.9,1.3-2.9,2.9v8c0,1.6,1.3,2.9,2.9,2.9h8c1.6,0,2.9-1.3,2.9-2.9v-8
		c0-1.6-1.3-2.9-2.9-2.9H6z"/>
</g>
</svg>
