<svg width="20" height="20" viewBox="0 0 20 20" fill="none" xmlns="http://www.w3.org/2000/svg">
<path d="M16.1323 2.10612C14.876 1.12876 13.4047 0.465587 11.8406 0.17177C10.2765 -0.122047 8.66492 -0.0380191 7.13985 0.416865C5.61478 0.871749 4.22032 1.68434 3.07244 2.78705C1.92457 3.88977 1.05646 5.25073 0.540325 6.75674C0.0241886 8.26275 -0.125057 9.87028 0.105001 11.4456C0.33506 13.021 0.937772 14.5186 1.86301 15.8139C2.78825 17.1093 4.00926 18.1649 5.4245 18.893C6.83974 19.6211 8.4083 20.0006 9.99971 20C12.4282 20.0012 14.7733 19.1139 16.5932 17.5052H9.3541L9.33194 15.3784C13.6946 11.5844 16.3686 9.02306 16.3686 6.54005C16.3686 5.61927 16.0185 4.4561 14.4392 4.4561C13.1908 4.4561 11.9853 5.18031 12.2039 8.20721H9.65992C9.02465 4.69849 10.9319 1.91398 14.5692 1.91398C15.0963 1.91051 15.6217 1.97509 16.1323 2.10612ZM20 9.99704C19.9976 8.80347 19.7809 7.62003 19.3603 6.5031C19.2525 10.0872 15.6122 12.8584 13.4745 14.6985H18.8255C19.5979 13.252 20.0013 11.637 20 9.99704Z" fill="#A2C617"/>
</svg>
