<svg width="30" height="30" viewBox="0 0 30 30" fill="none" xmlns="http://www.w3.org/2000/svg">
<path d="M15 30C23.2843 30 30 23.2843 30 15C30 6.71573 23.2843 0 15 0C6.71573 0 0 6.71573 0 15C0 23.2843 6.71573 30 15 30Z" fill="#DC4E41"/>
<path d="M5.22157 15.6718C5.16836 18.2527 6.94596 20.7156 9.39124 21.5188C11.6945 22.2926 14.5264 21.7138 16.0591 19.7412C17.1781 18.3591 17.4324 16.5165 17.3113 14.7951C15.3388 14.7774 13.3662 14.7833 11.3967 14.7862C11.3934 15.4889 11.3967 16.189 11.3996 16.8917C12.5807 16.9243 13.762 16.9093 14.943 16.9331C14.6449 17.9548 13.9657 18.9056 12.9349 19.2746C10.9448 20.1517 8.40538 19.0059 7.77915 16.9181C7.02324 14.9189 8.26072 12.5062 10.3038 11.9246C11.5707 11.4789 12.8759 11.9808 13.9599 12.6394C14.5091 12.1254 15.023 11.5762 15.5278 11.0211C14.2962 9.99061 12.7136 9.35876 11.0865 9.49754C7.89413 9.53551 5.10044 12.4827 5.22157 15.6718Z" fill="#DC4E41"/>
<path d="M21.15 13.0137C21.1441 13.6014 21.1379 14.1921 21.135 14.7795C20.5443 14.7854 19.9569 14.7883 19.3691 14.7913C19.3691 15.379 19.3691 15.9635 19.3691 16.5512C19.9569 16.5542 20.5475 16.5571 21.135 16.5633C21.1409 17.151 21.1409 17.7384 21.1467 18.3291C21.7315 18.3291 22.3192 18.3262 22.9067 18.3291C22.9099 17.7384 22.9126 17.151 22.9187 16.5603C23.5062 16.5574 24.0968 16.5544 24.6846 16.5515C24.6846 15.9638 24.6846 15.3793 24.6846 14.7915C24.0971 14.7886 23.5065 14.7857 22.9187 14.7798C22.9155 14.1921 22.9099 13.6014 22.9067 13.0139C22.3192 13.0137 21.7345 13.0137 21.15 13.0137Z" fill="#DC4E41"/>
<path d="M5.27138 15.008C5.15025 11.8189 7.94366 8.87171 11.136 8.83348C12.7631 8.6947 14.346 9.32654 15.5774 10.3571C15.0723 10.9124 14.5583 11.4614 14.0094 11.9753C12.9254 11.3167 11.6203 10.8148 10.3534 11.2606C8.30999 11.8424 7.07251 14.2551 7.82869 16.2541C8.45491 18.3418 10.9943 19.4876 12.9845 18.6106C14.015 18.2416 14.6944 17.2907 14.9926 16.269C13.8115 16.2455 12.6302 16.2602 11.4491 16.2276C11.4462 15.5249 11.4433 14.8249 11.4462 14.1222C13.4158 14.1192 15.3883 14.1133 17.3608 14.131C17.482 15.8527 17.228 17.6953 16.1087 19.0772C14.576 21.0497 11.7443 21.6286 9.44078 20.8548C6.99604 20.0518 5.21817 17.5889 5.27138 15.008Z" fill="white"/>
<path d="M21.1988 12.3506C21.7836 12.3506 22.3681 12.3506 22.9555 12.3506C22.9587 12.9383 22.9644 13.529 22.9676 14.1164C23.555 14.1223 24.1457 14.1252 24.7334 14.1282C24.7334 14.7159 24.7334 15.3004 24.7334 15.8881C24.1459 15.8911 23.5553 15.894 22.9676 15.897C22.9617 16.4876 22.9587 17.0751 22.9555 17.6657C22.3681 17.6628 21.7801 17.6657 21.1956 17.6657C21.19 17.0751 21.19 16.4876 21.1838 15.8999C20.5964 15.8938 20.0057 15.8911 19.418 15.8879C19.418 15.3002 19.418 14.7156 19.418 14.1279C20.0057 14.125 20.5934 14.122 21.1838 14.1162C21.1867 13.529 21.1926 12.9383 21.1988 12.3506Z" fill="white"/>
</svg>
