<svg width="20" height="20" viewBox="0 0 20 20" fill="none" xmlns="http://www.w3.org/2000/svg">
<path d="M4.4326 12.0868L3.7364 14.6858L1.19181 14.7396C0.431346 13.3292 0 11.7154 0 10.0005C0 8.34215 0.403298 6.77834 1.11817 5.40137H1.11872L3.38412 5.8167L4.37651 8.06851C4.1688 8.67404 4.0556 9.32407 4.0556 10.0005C4.05567 10.7346 4.18865 11.4379 4.4326 12.0868Z" fill="#FBBB00"/>
<path d="M19.8253 8.13184C19.9402 8.73678 20 9.36153 20 10C20 10.716 19.9248 11.4144 19.7814 12.0881C19.2945 14.3805 18.0225 16.3822 16.2604 17.7987L16.2598 17.7982L13.4064 17.6526L13.0026 15.1316C14.1718 14.4458 15.0856 13.3727 15.567 12.0881H10.2195V8.13184H15.645H19.8253Z" fill="#518EF8"/>
<path d="M16.2601 17.7987L16.2607 17.7992C14.5469 19.1767 12.3699 20.0009 10 20.0009C6.19161 20.0009 2.8805 17.8723 1.19141 14.7398L4.4322 12.0869C5.27673 14.3408 7.451 15.9453 10 15.9453C11.0956 15.9453 12.1221 15.6491 13.0029 15.1321L16.2601 17.7987Z" fill="#28B446"/>
<path d="M16.3844 2.30228L13.1447 4.95458C12.2331 4.38479 11.1556 4.05563 10.0011 4.05563C7.39443 4.05563 5.17949 5.73371 4.37727 8.06845L1.11944 5.40131H1.1189C2.78326 2.19239 6.13613 0 10.0011 0C12.4276 0 14.6524 0.864332 16.3844 2.30228Z" fill="#F14336"/>
</svg>
