<svg width="23" height="26" viewBox="0 0 23 26" fill="none" xmlns="http://www.w3.org/2000/svg">
<path fill-rule="evenodd" clip-rule="evenodd" d="M2.8999 5.9999C2.8999 3.18325 5.18325 0.899902 7.9999 0.899902H16.9999C19.8166 0.899902 22.0999 3.18325 22.0999 5.9999V19.9999C22.0999 22.8166 19.8166 25.0999 16.9999 25.0999H7.9999C5.18325 25.0999 2.8999 22.8166 2.8999 19.9999V18.9999H5.0999V19.9999C5.0999 21.6015 6.39828 22.8999 7.9999 22.8999H16.9999C18.6015 22.8999 19.8999 21.6015 19.8999 19.9999V5.9999C19.8999 4.39828 18.6015 3.0999 16.9999 3.0999H7.9999C6.39828 3.0999 5.0999 4.39828 5.0999 5.9999V6.9999H2.8999V5.9999Z" fill="white"/>
<path fill-rule="evenodd" clip-rule="evenodd" d="M16.4087 12.9999L11.859 18.6871L10.141 17.3127L12.7113 14.0999L3.51802e-06 14.0999L3.61419e-06 11.8999L12.7113 11.8999L10.141 8.68707L11.859 7.31274L16.4087 12.9999Z" fill="white"/>
</svg>
