<svg width="33" height="24" viewBox="0 0 33 24" fill="none" xmlns="http://www.w3.org/2000/svg">
<path d="M11.4632 21.6863L16.2 23.2652L32.4 17.8652V6.13535L28.3606 4.78889L26.4632 6.68625L30 7.86517V16.1354L18.3036 20.0342L22.5569 17.181L24.48 12.0003L23.5783 9.57119L21.7113 11.4382L21.92 12.0003L20.5765 15.6195L16.2 18.5553L15.2389 17.9106L13.5092 19.6403L14.0964 20.0342L13.3606 19.7889L11.4632 21.6863Z" fill="white"/>
<path d="M5.93599 17.314L2.4 16.1354V7.86517L14.0964 3.96636L9.84315 6.8195L7.91999 12.0003L8.82141 14.4286L10.6884 12.5616L10.48 12.0003L11.8235 8.38102L16.2 5.44525L17.1605 6.08953L18.8901 4.35985L18.3036 3.96636L19.0386 4.21138L20.936 2.31401L16.2 0.735352L0 6.13535V17.8652L4.03862 19.2114L5.93599 17.314Z" fill="white"/>
<path d="M27.1992 1L5.19922 23" stroke="white" stroke-width="2.4"/>
</svg>
