<svg xmlns="http://www.w3.org/2000/svg" width="12" height="20" viewBox="0 0 12 20"><g><g><g><path fill="#212121" d="M8.163 14.534l2.99 2.885c.612.59.612 1.548 0 2.138-.612.59-1.604.59-2.215 0L6 16.722l-2.936 2.835A1.594 1.594 0 0 1 1.955 20c-.4 0-.801-.148-1.107-.443a1.475 1.475 0 0 1-.001-2.138l2.99-2.885a10.235 10.235 0 0 1-3.105-1.24 1.481 1.481 0 0 1-.49-2.086c.459-.708 1.426-.92 2.159-.475a6.996 6.996 0 0 0 7.198 0c.733-.446 1.7-.233 2.16.475.461.706.24 1.64-.491 2.085a10.22 10.22 0 0 1-3.105 1.241z"/></g><g><path fill="#212121" d="M5.987 0c2.949 0 5.346 2.315 5.346 5.161 0 2.845-2.397 5.16-5.346 5.16C3.038 10.32.64 8.006.64 5.16.64 2.315 3.038 0 5.987 0zM8.2 5.16c0-1.177-.993-2.136-2.214-2.136-1.22 0-2.214.959-2.214 2.137 0 1.177.994 2.136 2.214 2.136S8.2 6.338 8.2 5.161z"/></g></g></g></svg>