<svg width="25" height="25" viewBox="0 0 25 25" fill="none" xmlns="http://www.w3.org/2000/svg">
<path fill-rule="evenodd" clip-rule="evenodd" d="M22.253 24.3746L14.5962 16.7178L16.7175 14.5965L24.3744 22.2533L22.253 24.3746Z" fill="white"/>
<path fill-rule="evenodd" clip-rule="evenodd" d="M15.374 15.374C18.342 12.406 18.342 7.59397 15.374 4.62599C12.406 1.658 7.59397 1.658 4.62599 4.62599C1.658 7.59397 1.658 12.406 4.62599 15.374C7.59397 18.342 12.406 18.342 15.374 15.374ZM17.0711 17.0711C20.9763 13.1658 20.9763 6.83417 17.0711 2.92893C13.1658 -0.976311 6.83417 -0.976311 2.92893 2.92893C-0.976311 6.83417 -0.976311 13.1658 2.92893 17.0711C6.83417 20.9763 13.1658 20.9763 17.0711 17.0711Z" fill="white"/>
</svg>
