<svg width="30" height="26" viewBox="0 0 30 26" fill="none" xmlns="http://www.w3.org/2000/svg">
<path d="M11.192 25.3072C9.89475 25.3072 8.55946 25.2021 7.21616 24.9915C4.85022 24.6203 2.45521 23.3827 1.77749 23.0122L0 22.0403L1.92443 21.4075C4.02808 20.7158 5.30775 20.2866 6.89183 19.6147C5.30569 18.8465 4.08324 17.4648 3.49478 15.6786L3.04709 14.3195L3.41422 14.3755C3.06609 14.0247 2.7912 13.6685 2.57811 13.3447C1.82029 12.1936 1.41906 10.7871 1.50443 9.58184L1.58866 8.39555L2.29888 8.67067C1.99927 8.10487 1.78275 7.50062 1.6555 6.86731C1.34536 5.32281 1.60491 3.68196 2.38654 2.2471L3.00521 1.11139L3.83261 2.10519C6.44941 5.24865 9.76383 7.11335 13.6976 7.65924C13.5369 6.55168 13.6573 5.4828 14.0558 4.5247C14.5197 3.40913 15.3451 2.46316 16.4419 1.78888C17.66 1.0402 19.1372 0.677426 20.6013 0.767376C22.1548 0.86282 23.5651 1.44487 24.6853 2.45172C25.2323 2.30958 25.6354 2.15783 26.1801 1.95276C26.5078 1.82939 26.8795 1.68931 27.3446 1.5291L29.0585 0.93858L27.9409 4.13057C28.0146 4.12439 28.0906 4.11912 28.17 4.11569L30.0001 4.03283L28.9184 5.51118C28.8564 5.59587 28.8406 5.6199 28.8186 5.65309C28.7314 5.78447 28.6229 5.94789 27.1382 7.93046C26.7665 8.42691 26.5809 9.0735 26.6154 9.75145C26.747 12.3277 26.4309 14.6587 25.6754 16.6792C24.9608 18.5909 23.8535 20.231 22.3846 21.5542C20.5668 23.1912 18.2489 24.312 15.495 24.8851C14.1442 25.1662 12.6935 25.3072 11.192 25.3072Z" fill="#33CCFF"/>
</svg>
