<svg width="30" height="30" viewBox="0 0 30 30" fill="none" xmlns="http://www.w3.org/2000/svg">
<path d="M26 0H4C1.79086 0 0 1.79086 0 4V26C0 28.2091 1.79086 30 4 30H26C28.2091 30 30 28.2091 30 26V4C30 1.79086 28.2091 0 26 0Z" fill="#44678D"/>
<path d="M8.82517 10.2387C9.43935 11.6788 10.2177 13.0366 11.2429 14.2555C11.3789 14.4177 11.5503 14.5619 11.7309 14.6793C11.9946 14.8513 12.2434 14.7908 12.3507 14.5044C12.4641 14.2038 12.5682 13.5946 12.5744 13.2789C12.5913 12.4541 12.5718 11.9136 12.5252 11.0898C12.4949 10.5621 12.2974 10.0989 11.48 9.95902C11.2275 9.91566 11.2041 9.71838 11.3663 9.52157C11.7039 9.11184 12.1742 9.04654 12.6843 9.0207C13.5109 8.9783 14.3406 9.0129 15.1682 9.0207C15.5053 9.02363 15.8445 9.04942 16.1765 9.11814C16.6095 9.20778 16.8414 9.49621 16.9128 9.89762C16.9497 10.1047 16.9688 10.3176 16.9636 10.5271C16.942 11.4274 16.8964 12.3272 16.8856 13.227C16.881 13.5802 16.9081 13.9422 16.9877 14.2862C17.099 14.7655 17.4428 14.8859 17.7943 14.5395C18.2407 14.0996 18.6343 13.6046 19.0037 13.1019C19.6748 12.1874 20.1761 11.1838 20.6076 10.1491C20.8308 9.61517 21.0017 9.4992 21.6066 9.49776C22.7437 9.4953 23.8807 9.49434 25.0178 9.49776C25.2194 9.49872 25.4303 9.51677 25.6206 9.57427C25.9295 9.66782 26.0522 9.90702 25.9798 10.2106C25.811 10.9219 25.4062 11.5264 24.9726 12.1076C24.2768 13.0401 23.5477 13.9502 22.8356 14.8719C22.7447 14.9893 22.6647 15.1145 22.5903 15.2416C22.3239 15.6986 22.3424 15.9549 22.7308 16.3353C23.3491 16.9409 24.0111 17.5075 24.6098 18.1296C25.045 18.5822 25.4477 19.0733 25.7925 19.5902C26.2287 20.2439 25.9593 20.8597 25.1445 20.9693C24.6319 21.0381 22.1281 20.9699 21.9987 20.9693C21.3255 20.9665 20.7355 20.7448 20.2603 20.3107C19.7318 19.8274 19.2515 19.2973 18.7441 18.7931C18.5912 18.6411 18.428 18.4954 18.252 18.3683C17.8369 18.0677 17.4295 18.1344 17.2355 18.5973C17.0698 18.9948 16.9266 20.0388 16.9199 20.128C16.8851 20.5942 16.5726 20.8914 16.0225 20.9201C14.4345 21.002 12.8956 20.8339 11.4621 20.1046C10.247 19.4868 9.27678 18.6133 8.43632 17.5947C7.10122 15.9766 6.04667 14.1981 5.08389 12.3673C5.03469 12.2737 4.05954 10.3035 4.03334 10.2104C3.94623 9.89885 4.02749 9.60118 4.30477 9.49872C4.47764 9.43486 7.69274 9.49851 7.74622 9.50123C8.25924 9.52761 8.60907 9.73312 8.82517 10.2387Z" fill="white"/>
</svg>
