<svg xmlns="http://www.w3.org/2000/svg" width="20" height="11" viewBox="0 0 20 11"><g><g><path fill="#212121" d="M10.98 10.954s.362-.039.547-.23c.169-.175.163-.506.163-.506s-.022-1.546.722-1.774c.734-.225 1.676 1.494 2.675 2.155.755.5 1.329.39 1.329.39l2.671-.035s1.397-.083.735-1.142c-.055-.087-.387-.784-1.986-2.215-1.676-1.499-1.45-1.256.566-3.849 1.23-1.579 1.72-2.542 1.566-2.954-.145-.395-1.05-.29-1.05-.29l-3.006.018s-.223-.03-.388.066c-.162.093-.267.311-.267.311s-.475 1.221-1.11 2.26c-1.339 2.192-1.874 2.308-2.093 2.173-.51-.318-.383-1.275-.383-1.955 0-2.125.335-3.01-.65-3.24-.327-.076-.567-.126-1.404-.135-1.073-.01-1.98.004-2.495.247-.343.16-.607.521-.445.542.198.025.648.117.887.43.308.404.297 1.312.297 1.312s.177 2.5-.413 2.81c-.405.214-.961-.22-2.155-2.21A18.2 18.2 0 0 1 4.22.99S4.13.779 3.97.665C3.778.53 3.509.486 3.509.486L.652.504S.222.515.065.696c-.14.159-.01.49-.01.49s2.236 5.046 4.77 7.59c2.323 2.33 4.96 2.178 4.96 2.178z"/></g></g></svg>