<svg width="10" height="20" viewBox="0 0 10 20" fill="none" xmlns="http://www.w3.org/2000/svg">
<path d="M9.11806 0H6.33124C3.50783 0 0.658866 2.12586 0.658866 6.87523C0.658866 9.33531 1.6814 11.2513 3.55583 12.3409L0.125092 18.6726C-0.037572 18.9721 -0.0418245 19.3114 0.113676 19.5804C0.265499 19.8431 0.543131 20 0.856047 20H2.59153C2.98578 20 3.29318 19.8057 3.4406 19.4653L6.6573 13.05H6.89206V19.2004C6.89206 19.6339 7.25076 20 7.67535 20H9.19143C9.66758 20 10 19.661 10 19.1756V0.875117C10.0001 0.359883 9.63743 0 9.11806 0ZM6.89206 10.2002H6.47793C4.87216 10.2002 3.91353 8.86375 3.91353 6.62512C3.91353 3.84156 5.12451 2.8498 6.25788 2.8498H6.89206V10.2002Z" fill="#D7143A"/>
</svg>
