<svg width="30" height="26" viewBox="0 0 30 26" fill="none" xmlns="http://www.w3.org/2000/svg"><path d="M11.192 25.307a25.69 25.69 0 01-3.976-.316c-2.366-.37-4.76-1.608-5.439-1.979L0 22.04l1.924-.633c2.104-.691 3.384-1.12 4.968-1.792-1.586-.768-2.809-2.15-3.397-3.936l-.448-1.36.367.056a6.675 6.675 0 01-.836-1.03c-.758-1.151-1.159-2.558-1.074-3.763l.085-1.186.71.275a6.64 6.64 0 01-.643-1.804c-.31-1.544-.051-3.185.73-4.62l.62-1.136.827.994c2.616 3.144 5.93 5.008 9.865 5.554-.161-1.107-.04-2.176.358-3.134.464-1.116 1.29-2.062 2.386-2.736a7.167 7.167 0 014.16-1.022c1.553.096 2.963.678 4.083 1.685.547-.142.95-.294 1.495-.5.328-.123.7-.263 1.165-.423l1.713-.59-1.117 3.192c.074-.007.15-.012.229-.015L30 4.033 28.918 5.51c-.062.085-.077.109-.1.142-.087.131-.195.295-1.68 2.277-.372.497-.557 1.143-.523 1.821.132 2.577-.184 4.908-.94 6.928-.714 1.912-1.822 3.552-3.29 4.875-1.818 1.637-4.136 2.758-6.89 3.331-1.35.281-2.801.422-4.303.422z" fill="#3CF"/></svg>