<svg width="23" height="26" viewBox="0 0 23 26" fill="none" xmlns="http://www.w3.org/2000/svg"><path fill-rule="evenodd" clip-rule="evenodd" d="M2.9 6A5.1 5.1 0 018 .9h9A5.1 5.1 0 0122.1 6v14a5.1 5.1 0 01-5.1 5.1H8A5.1 5.1 0 012.9 20v-1h2.2v1A2.9 2.9 0 008 22.9h9a2.9 2.9 0 002.9-2.9V6A2.9 2.9 0 0017 3.1H8A2.9 2.9 0 005.1 6v1H2.9V6z" fill="#fff"/><path fill-rule="evenodd" clip-rule="evenodd" d="M16.409 13l-4.55 5.687-1.718-1.374 2.57-3.213H0v-2.2h12.711l-2.57-3.213 1.718-1.374L16.409 13z" fill="#fff"/></svg>