<svg width="28" height="29" viewBox="0 0 28 29" fill="none" xmlns="http://www.w3.org/2000/svg"><path d="M16.596 14.691l4.293 2.597-4.743-1.645 2.874 4.12-3.67-3.427.952 4.933-1.956-4.622-1.142 4.882.086-5.02-3.03 3.998 2.13-4.535-4.397 2.406 3.791-3.271-4.985.415 4.795-1.454-4.743-1.644 4.968.606-3.653-3.428 4.293 2.597-1.938-4.622 2.873 4.102.104-5.002.952 4.916 2.13-4.536-1.143 4.882 3.79-3.272-3.011 3.999 4.795-1.454-4.38 2.423 11.027.208L14.12.323.238 14.208 14.121 28.09l13.554-13.554-11.079.156z" fill="#FFC907"/></svg>