<svg width="573" height="1429" viewBox="0 0 573 1429" fill="none" xmlns="http://www.w3.org/2000/svg"><path d="M572.5 713.67L287.62 571.584 572.5 429.498V713.67z" stroke="url(#paint0_radial)"/><path d="M572.5 427.881L287.62 285.795 572.5 143.709v284.172z" stroke="url(#paint1_radial)"/><path d="M572.5 1285.26l-284.88-142.08 284.88-142.09v284.17z" stroke="url(#paint2_radial)"/><path d="M572.5 999.474L287.62 857.388 572.5 715.302v284.172z" stroke="url(#paint3_radial)"/><path d="M287 570.77l284.88-142.086L287 286.598V570.77z" stroke="url(#paint4_radial)"/><path d="M287 284.98l284.88-142.086L287 .808V284.98z" stroke="url(#paint5_radial)"/><path d="M287 1142.37l284.88-142.09L287 858.193v284.177z" stroke="url(#paint6_radial)"/><path d="M287 1428.16l284.88-142.09L287 1143.99v284.17z" stroke="url(#paint7_radial)"/><path d="M287 856.574l284.88-142.086L287 572.402v284.172z" stroke="url(#paint8_radial)"/><path d="M.5 713.67l284.88-142.086L.5 429.498V713.67z" stroke="url(#paint9_radial)"/><path d="M.5 427.881l284.88-142.086L.5 143.709v284.172z" stroke="url(#paint10_radial)"/><path d="M.5 1285.26l284.88-142.08L.5 1001.09v284.17z" stroke="url(#paint11_radial)"/><path d="M.5 999.474l284.88-142.086L.5 715.302v284.172z" stroke="url(#paint12_radial)"/><path d="M286 570.77L1.12 428.684 286 286.598V570.77z" stroke="url(#paint13_radial)"/><path d="M286 284.98L1.12 142.894 286 .808V284.98z" stroke="url(#paint14_radial)"/><path d="M286 1142.37L1.12 1000.28 286 858.193v284.177z" stroke="url(#paint15_radial)"/><path d="M286 1428.16L1.12 1286.07 286 1143.99v284.17z" stroke="url(#paint16_radial)"/><path d="M286 856.574L1.12 714.488 286 572.402v284.172z" stroke="url(#paint17_radial)"/><defs><radialGradient id="paint0_radial" cx="0" cy="0" r="1" gradientUnits="userSpaceOnUse" gradientTransform="scale(143.25 142.894) rotate(90 -.5 3.5)"><stop offset=".146" stop-color="#6A6A6A"/><stop offset=".688"/></radialGradient><radialGradient id="paint1_radial" cx="0" cy="0" r="1" gradientUnits="userSpaceOnUse" gradientTransform="scale(143.25 142.894) rotate(90 .5 2.5)"><stop offset=".146" stop-color="#6A6A6A"/><stop offset=".688"/></radialGradient><radialGradient id="paint2_radial" cx="0" cy="0" r="1" gradientUnits="userSpaceOnUse" gradientTransform="scale(143.25 142.894) rotate(90 -2.5 5.5)"><stop offset=".146" stop-color="#6A6A6A"/><stop offset=".688"/></radialGradient><radialGradient id="paint3_radial" cx="0" cy="0" r="1" gradientUnits="userSpaceOnUse" gradientTransform="scale(143.25 142.894) rotate(90 -1.5 4.5)"><stop offset=".146" stop-color="#6A6A6A"/><stop offset=".688"/></radialGradient><radialGradient id="paint4_radial" cx="0" cy="0" r="1" gradientUnits="userSpaceOnUse" gradientTransform="scale(143.25 142.894) rotate(90 0 3)"><stop offset=".146" stop-color="#6A6A6A"/><stop offset=".688"/></radialGradient><radialGradient id="paint5_radial" cx="0" cy="0" r="1" gradientUnits="userSpaceOnUse" gradientTransform="scale(143.25 142.894) rotate(90 1 2)"><stop offset=".146" stop-color="#6A6A6A"/><stop offset=".688"/></radialGradient><radialGradient id="paint6_radial" cx="0" cy="0" r="1" gradientUnits="userSpaceOnUse" gradientTransform="scale(143.25 142.894) rotate(90 -2 5)"><stop offset=".146" stop-color="#6A6A6A"/><stop offset=".688"/></radialGradient><radialGradient id="paint7_radial" cx="0" cy="0" r="1" gradientUnits="userSpaceOnUse" gradientTransform="scale(143.25 142.894) rotate(90 -3 6)"><stop offset=".146" stop-color="#6A6A6A"/><stop offset=".688"/></radialGradient><radialGradient id="paint8_radial" cx="0" cy="0" r="1" gradientUnits="userSpaceOnUse" gradientTransform="scale(143.25 142.894) rotate(90 -1 4)"><stop offset=".146" stop-color="#6A6A6A"/><stop offset=".688"/></radialGradient><radialGradient id="paint9_radial" cx="0" cy="0" r="1" gradientUnits="userSpaceOnUse" gradientTransform="scale(143.25 142.894) rotate(90 -1.5 2.5)"><stop offset=".146" stop-color="#6A6A6A"/><stop offset=".688"/></radialGradient><radialGradient id="paint10_radial" cx="0" cy="0" r="1" gradientUnits="userSpaceOnUse" gradientTransform="scale(143.25 142.894) rotate(90 -.5 1.5)"><stop offset=".146" stop-color="#6A6A6A"/><stop offset=".688"/></radialGradient><radialGradient id="paint11_radial" cx="0" cy="0" r="1" gradientUnits="userSpaceOnUse" gradientTransform="scale(143.25 142.894) rotate(90 -3.5 4.5)"><stop offset=".146" stop-color="#6A6A6A"/><stop offset=".688"/></radialGradient><radialGradient id="paint12_radial" cx="0" cy="0" r="1" gradientUnits="userSpaceOnUse" gradientTransform="scale(143.25 142.894) rotate(90 -2.5 3.5)"><stop offset=".146" stop-color="#6A6A6A"/><stop offset=".688"/></radialGradient><radialGradient id="paint13_radial" cx="0" cy="0" r="1" gradientUnits="userSpaceOnUse" gradientTransform="scale(143.25 142.894) rotate(90 -1 2)"><stop offset=".146" stop-color="#6A6A6A"/><stop offset=".688"/></radialGradient><radialGradient id="paint14_radial" cx="0" cy="0" r="1" gradientUnits="userSpaceOnUse" gradientTransform="scale(143.25 142.894) rotate(90 0 1)"><stop offset=".146" stop-color="#6A6A6A"/><stop offset=".688"/></radialGradient><radialGradient id="paint15_radial" cx="0" cy="0" r="1" gradientUnits="userSpaceOnUse" gradientTransform="scale(143.25 142.894) rotate(90 -3 4)"><stop offset=".146" stop-color="#6A6A6A"/><stop offset=".688"/></radialGradient><radialGradient id="paint16_radial" cx="0" cy="0" r="1" gradientUnits="userSpaceOnUse" gradientTransform="scale(143.25 142.894) rotate(90 -4 5)"><stop offset=".146" stop-color="#6A6A6A"/><stop offset=".688"/></radialGradient><radialGradient id="paint17_radial" cx="0" cy="0" r="1" gradientUnits="userSpaceOnUse" gradientTransform="scale(143.25 142.894) rotate(90 -2 3)"><stop offset=".146" stop-color="#6A6A6A"/><stop offset=".688"/></radialGradient></defs></svg>