<svg width="46" height="46" viewBox="0 0 46 46" fill="none" xmlns="http://www.w3.org/2000/svg"><path d="M23 0l.642 21.45L39.264 6.737 24.55 22.357 46 23l-21.45.642 14.713 15.622-15.62-14.714L23 46l-.642-21.45L6.737 39.264l14.713-15.62L0 23l21.45-.642L6.737 6.737l15.62 14.713L23 0z" fill="#FFC809"/><path d="M28.604 9.237l-4.842 12.992 12.933-4.998-12.61 5.763 12.679 5.61-12.993-4.841 4.999 12.932-5.764-12.61-5.61 12.679 4.842-12.992L9.305 28.77l12.61-5.763-12.679-5.61 12.993 4.841L17.23 9.306l5.763 12.61 5.61-12.68z" fill="#FFC809"/></svg>