<svg width="1068" height="1080" viewBox="0 0 1068 1080" fill="none" xmlns="http://www.w3.org/2000/svg">
<path d="M636.757 558.853L803.864 659.85L619.238 595.885L731.091 756.135L588.242 622.818L625.302 814.713L549.161 634.938L504.689 824.813L508.058 629.551L390.14 785.087L473.02 608.678L301.87 702.269L449.436 575.012L255.377 591.172L442.024 534.613L257.398 470.648L450.784 494.214L308.608 360.898L475.715 461.895L400.247 282.12L512.101 441.696L516.144 247.107L553.204 438.329L636.083 261.92L591.611 451.796L739.177 324.539L621.933 480.075L808.58 423.516L638.105 517.78L1067.33 525.86L540.401 0L0 540L540.401 1080L1068 552.793L636.757 558.853Z" fill="#121212"/>
</svg>
