<svg width="28" height="29" viewBox="0 0 28 29" fill="none" xmlns="http://www.w3.org/2000/svg">
<path d="M16.5965 14.6912L20.8894 17.2878L16.1464 15.6433L19.0199 19.7631L15.3501 16.3357L16.3022 21.2691L14.3461 16.6473L13.2037 21.5288L13.2902 16.5088L10.2609 20.5075L12.3901 15.9722L7.99328 18.3783L11.7842 15.1067L6.79887 15.5221L11.5938 14.0681L6.8508 12.4236L11.8188 13.0295L8.16638 9.60203L12.4593 12.1986L10.5206 7.57673L13.3941 11.6793L13.4979 6.67659L14.45 11.5927L16.5792 7.05742L15.4367 11.9389L19.2276 8.66727L16.2156 12.6659L21.0106 11.2119L16.6311 13.6353L27.6577 13.843L14.1211 0.32373L0.238281 14.2066L14.1211 28.0894L27.675 14.5354L16.5965 14.6912Z" fill="#FFC907"/>
</svg>
