<svg width="143" height="39" viewBox="0 0 143 39" fill="none" xmlns="http://www.w3.org/2000/svg">
<path fill-rule="evenodd" clip-rule="evenodd" d="M97.803 6.66431H143V27.724H97.803V6.66431ZM102.979 23.213H109.886V21.5166H104.866V11.1824H102.979V23.213ZM114.905 22.2609C114.452 21.9172 114.085 21.4728 113.832 20.9627C113.558 20.3905 113.422 19.7621 113.434 19.1278V11.1824H115.304V19.1278C115.304 19.8375 115.563 20.3914 116.065 20.7549C116.59 21.1428 117.23 21.3439 117.883 21.3262C118.54 21.3412 119.185 21.1406 119.718 20.7549C120.202 20.3914 120.445 19.8375 120.445 19.1278V11.1824H122.349V19.1278C122.353 19.7612 122.217 20.3877 121.951 20.9627C121.688 21.4656 121.322 21.9078 120.878 22.2609C120.005 22.8803 118.962 23.213 117.892 23.213C116.822 23.213 115.778 22.8803 114.905 22.2609ZM132.25 18.5046L135.453 23.213H137.824L133.427 16.7736L137.253 11.1824H134.899L132.25 15.0426L129.619 11.1824H127.248L131.056 16.7736L126.676 23.213H129.048L132.25 18.5046Z" fill="white"/>
<path d="M46.6165 22.7456C45.8962 22.4446 45.2431 22.0033 44.695 21.4474C44.1434 20.9024 43.7026 20.2558 43.3968 19.5433C43.0846 18.8039 42.9256 18.0089 42.9294 17.2064C42.9271 16.3984 43.086 15.598 43.3968 14.8522C43.7107 14.139 44.1505 13.4881 44.695 12.9307C45.2441 12.3803 45.8973 11.9449 46.6165 11.6498C47.3502 11.339 48.1392 11.18 48.936 11.1824C49.744 11.1801 50.5444 11.339 51.2902 11.6498C52.0049 11.9533 52.6566 12.3878 53.2117 12.9307C53.751 13.4888 54.1849 14.1397 54.4926 14.8522C54.8034 15.598 54.9623 16.3984 54.96 17.2064C54.9625 17.9936 54.8093 18.7736 54.5093 19.5014C54.2092 20.2293 53.7682 20.8906 53.2117 21.4474C52.6573 21.9956 52.0057 22.4358 51.2902 22.7456C50.5444 23.0564 49.744 23.2153 48.936 23.213C48.1392 23.2154 47.3502 23.0564 46.6165 22.7456ZM46.0279 14.2809C45.2543 15.0545 44.8198 16.1037 44.8198 17.1977C44.8198 17.7394 44.9264 18.2758 45.1337 18.7763C45.341 19.2767 45.6449 19.7315 46.0279 20.1145C46.411 20.4975 46.8657 20.8014 47.3662 21.0087C47.8666 21.216 48.403 21.3227 48.9447 21.3227C50.0387 21.3227 51.0879 20.8881 51.8615 20.1145C52.6351 19.3409 53.0696 18.2917 53.0696 17.1977C53.0696 16.1037 52.6351 15.0545 51.8615 14.2809C51.0879 13.5074 50.0387 13.0728 48.9447 13.0728C47.8507 13.0728 46.8015 13.5074 46.0279 14.2809Z" fill="white"/>
<path d="M68.7909 23.213V16.8255L65.0173 22.434L61.2436 16.8255V23.213H59.3568V10.6284L65.0173 19.0758L70.6777 10.6284V23.213H68.7909Z" fill="white"/>
<path d="M77.3595 15.4753V23.2129H75.4727V10.6111L83.0372 18.9027V11.1823H84.9241V23.7669L77.3595 15.4753Z" fill="white"/>
<path d="M89.719 23.213V11.1824H91.5885V23.213H89.719Z" fill="white"/>
<path d="M21.1704 3.96405L17.2064 0L0 17.2064L17.2064 34.4128L21.1704 30.4487L7.9281 17.2064L21.1704 3.96405Z" fill="white"/>
<path d="M28.5965 17.6912L32.8894 20.2878L28.1464 18.6433L31.0199 22.7631L27.3501 19.3357L28.3022 24.2691L26.3461 19.6473L25.2037 24.5288L25.2902 19.5088L22.2609 23.5075L24.3901 18.9722L19.9933 21.3783L23.7842 18.1067L18.7989 18.5221L23.5938 17.0681L18.8508 15.4236L23.8188 16.0295L20.1664 12.602L24.4593 15.1986L22.5206 10.5767L25.3941 14.6793L25.4979 9.67659L26.45 14.5927L28.5792 10.0574L27.4367 14.9389L31.2276 11.6673L28.2156 15.6659L33.0106 14.2119L28.6311 16.6353L39.6577 16.843L26.1211 3.32373L12.2383 17.2066L26.1211 31.0894L39.675 17.5354L28.5965 17.6912Z" fill="#FFC907"/>
<path d="M46.2877 36.1264H47.0666C47.0347 36.5823 46.852 37.0147 46.5473 37.3554C46.253 37.7189 45.7684 37.892 45.1106 37.892C44.6024 37.8757 44.1096 37.7135 43.6911 37.4247C43.2064 37.1131 42.9468 36.438 42.9295 35.4167C42.9122 34.6896 43.0333 34.1184 43.293 33.7549C43.5041 33.4263 43.8128 33.172 44.1758 33.0279C44.4605 32.9317 44.7582 32.8791 45.0586 32.8721C45.7337 32.8721 46.2184 33.0279 46.53 33.3741C46.8182 33.6863 46.9841 34.0919 46.9974 34.5165H46.2357C46.2124 34.2607 46.1095 34.0185 45.9415 33.8241C45.7684 33.6164 45.4914 33.5126 45.1106 33.5299C44.9054 33.5193 44.7012 33.5635 44.5187 33.6577C44.3362 33.752 44.1821 33.8931 44.072 34.0665C43.7344 34.7699 43.6847 35.5773 43.9335 36.3168C44.0232 36.5762 44.1854 36.8045 44.4009 36.9746C44.6079 37.1509 44.8734 37.2435 45.1452 37.2343C45.5433 37.2343 45.8203 37.1131 45.9934 36.8881C46.1485 36.6601 46.2492 36.3995 46.2877 36.1264Z" fill="white"/>
<path d="M52.1212 32.9934H54.2158C54.7524 32.9934 55.1332 33.1319 55.3236 33.3742C55.5072 33.611 55.5994 33.906 55.5833 34.2051C55.5631 34.3525 55.5283 34.4974 55.4794 34.6379C55.4173 34.7697 55.3289 34.8875 55.2197 34.9841C55.1038 35.0856 54.9683 35.1622 54.8216 35.2091V35.2437C55.0711 35.2779 55.3024 35.3935 55.4794 35.5726C55.5889 35.6835 55.6734 35.8166 55.7272 35.9629C55.7809 36.1093 55.8027 36.2654 55.791 36.4208C55.8142 36.7127 55.7278 37.0028 55.5486 37.2344C55.3971 37.4313 55.1837 37.5715 54.9428 37.6326C54.6776 37.7043 54.4039 37.7393 54.1292 37.7364H52.1212V32.9934ZM52.8829 33.6858V34.9668H54.008C54.1991 34.9655 54.3878 34.9243 54.562 34.8456C54.7178 34.7591 54.8043 34.586 54.8043 34.309C54.8161 34.217 54.8031 34.1235 54.7665 34.0383C54.73 33.9531 54.6713 33.8792 54.5966 33.8243C54.4148 33.7141 54.2023 33.6655 53.9907 33.6858H52.8829ZM52.8829 35.6073V37.0613H54.0427C54.2694 37.0641 54.494 37.0169 54.7004 36.9228C54.8909 36.8363 54.9774 36.6286 54.9774 36.3343C54.9887 36.2263 54.9724 36.1173 54.93 36.0174C54.8876 35.9174 54.8206 35.8299 54.7351 35.763C54.53 35.6465 54.2954 35.5924 54.06 35.6073H52.8829Z" fill="white"/>
<path d="M61.8149 34.9668H64.1171V35.6419H61.8149V37.044H64.446V37.7364H61.0532V32.9934H64.3941V33.7031H61.8149V34.9668Z" fill="white"/>
<path d="M70.3142 33.7031H68.9121V32.9934H72.5126V33.7031H71.0932V37.7364H70.3142V33.7031Z" fill="white"/>
<path d="M84.5086 35.0706H84.5605L86.3608 32.9934H87.2782L85.2529 35.1572L87.4513 37.7364H86.4473L84.5605 35.3649H84.5086V37.7364H83.7469V32.9934H84.5086V35.0706Z" fill="white"/>
<path d="M92.8695 36.6805L92.5233 37.7364H91.7097L93.4061 32.9934H94.2024L95.9161 37.7364H95.0852L94.7217 36.6805H92.8695ZM93.0945 36.0054H94.514L93.8735 34.084L93.8216 33.7724H93.7696L93.7177 34.084L93.0945 36.0054Z" fill="white"/>
<path d="M102.823 37.7364L102.858 35.3995H102.806L101.092 37.7364H100.174L102.165 35.1745L100.261 32.9934H101.144L102.806 35.0706H102.858L102.823 32.9934H103.602L103.55 35.0706H103.602L105.264 32.9934H106.146L104.242 35.1745L106.25 37.7364H105.333L103.602 35.3995H103.55L103.602 37.7364H102.823Z" fill="white"/>
<path d="M114.698 37.044H115.321L115.269 38.8097H114.594V37.7364H111.253V38.8097H110.595L110.543 37.044H110.993C111.237 36.6843 111.418 36.2864 111.53 35.8669C111.684 35.2617 111.76 34.6392 111.755 34.0147V32.9934H114.68L114.698 37.044ZM113.919 33.6858H112.499V34.2571C112.498 34.8154 112.44 35.3722 112.326 35.9188C112.221 36.3211 112.058 36.706 111.841 37.0613H113.919V33.6858Z" fill="white"/>
<path d="M122.228 37.8574C121.928 37.857 121.63 37.8103 121.345 37.7189C120.978 37.5825 120.663 37.3342 120.445 37.0092C120.168 36.6457 120.029 36.0918 120.029 35.3647C120.029 34.3088 120.272 33.6337 120.756 33.3221C121.197 33.0427 121.706 32.8873 122.228 32.8721C122.748 32.8827 123.253 33.0452 123.682 33.3394C124.184 33.651 124.426 34.3261 124.426 35.3647C124.426 36.4034 124.184 37.0785 123.682 37.39C123.25 37.679 122.747 37.841 122.228 37.8574ZM122.228 37.1996C122.747 37.1996 123.111 37.0092 123.301 36.6457C123.5 36.2483 123.601 35.8091 123.595 35.3647C123.603 34.9202 123.502 34.4805 123.301 34.0838C123.111 33.7203 122.747 33.5472 122.228 33.5472C121.708 33.5472 121.345 33.7203 121.154 34.0838C120.954 34.4805 120.853 34.9202 120.86 35.3647C120.855 35.8091 120.956 36.2483 121.154 36.6457C121.345 37.0092 121.708 37.1996 122.228 37.1996Z" fill="white"/>
<path d="M130.329 37.7364H129.585V32.9934H130.692L131.818 36.3862L131.87 36.9228H131.939L131.991 36.3862L133.133 32.9934H134.206V37.7364H133.479V34.3436L133.531 33.807H133.479L133.324 34.3436L132.198 37.7364H131.61L130.467 34.3436L130.312 33.807H130.277L130.329 34.3436V37.7364Z" fill="white"/>
<path d="M139.157 32.9934H140.04L141.113 35.5553L141.182 35.9015H141.217L141.269 35.5553L142.152 32.9934H143L141.511 36.8363C141.419 37.1324 141.245 37.3965 141.009 37.5979C140.795 37.7403 140.539 37.8073 140.282 37.7883C140.091 37.7898 139.899 37.7724 139.711 37.7364V37.044C139.847 37.0811 139.986 37.1043 140.126 37.1132C140.455 37.1132 140.68 36.9055 140.784 36.4901L139.157 32.9934Z" fill="white"/>
</svg>
