<svg width="46" height="46" viewBox="0 0 46 46" fill="none" xmlns="http://www.w3.org/2000/svg">
<path d="M23 0L23.6422 21.4495L39.2635 6.73654L24.5505 22.3578L46 23L24.5505 23.6422L39.2635 39.2635L23.6422 24.5505L23 46L22.3578 24.5505L6.73654 39.2635L21.4495 23.6422L0 23L21.4495 22.3578L6.73654 6.73654L22.3578 21.4495L23 0Z" fill="#FFC809"/>
<path d="M28.6037 9.23678L23.7621 22.229L36.6948 17.2305L24.0843 22.9938L36.7636 28.6041L23.7713 23.7625L28.7699 36.6952L23.0065 24.0847L17.3963 36.764L22.2379 23.7718L9.30521 28.7703L21.9157 23.007L9.23637 17.3967L22.2286 22.2383L17.2301 9.30562L22.9934 21.9161L28.6037 9.23678Z" fill="#FFC809"/>
</svg>
