<svg version="1.1" id="Layer_1" xmlns="http://www.w3.org/2000/svg" x="0" y="0" viewBox="0 0 28 28" xml:space="preserve"><style>.st0{fill:#212121}</style><path class="st0" d="M22 19.1h-4v-2.2h4c1.6 0 2.9-1.3 2.9-2.9V6c0-1.6-1.3-2.9-2.9-2.9h-8c-1.6 0-2.9 1.3-2.9 2.9v4H8.9V6C8.9 3.2 11.2.9 14 .9h8c2.8 0 5.1 2.3 5.1 5.1v8c0 2.8-2.3 5.1-5.1 5.1z"/><path class="st0" d="M14 27.1H6C3.2 27.1.9 24.8.9 22v-8c0-2.8 2.3-5.1 5.1-5.1h8c2.8 0 5.1 2.3 5.1 5.1v8c0 2.8-2.3 5.1-5.1 5.1zm-8-16c-1.6 0-2.9 1.3-2.9 2.9v8c0 1.6 1.3 2.9 2.9 2.9h8c1.6 0 2.9-1.3 2.9-2.9v-8c0-1.6-1.3-2.9-2.9-2.9H6z"/></svg>