<svg xmlns="http://www.w3.org/2000/svg" width="110" height="28" viewBox="0 0 110 28"><path fill="#212121" d="M11.548 23.262l-.04-.078L0 16l4.099-2.951L7.489 0l4.098 2.951 13.676-.854-1.576 4.738 5.044 12.544h-5.084l-.039.038L13.085 28z"/><path fill="#ffc809" d="M11.549 23.144v.078l7.961-3.884 1.498.04h2.641l-.158-1.166-1.104-7.495 1.3-3.845h-.039l-.118-.039-8.592-1.475-3.35-2.408v.039l-1.024 1.864-3.114 5.825-3.192 2.291-.158.117 6.188 6.252z"/><path fill="#212121" d="M38.9 19.064v-2.019c.867.582 1.734.854 2.601.854.907 0 1.616-.233 2.129-.66.551-.427.827-1.048.827-1.786s-.276-1.282-.827-1.71c-.552-.426-1.34-.62-2.365-.62-.355 0-1.025.038-1.97.116V6.482h6.739v1.786h-4.848v3.224c.394-.04.749-.04 1.103-.04 1.38 0 2.444.35 3.232 1.05.75.698 1.143 1.67 1.143 2.873 0 1.282-.433 2.291-1.3 3.068-.867.777-2.05 1.165-3.587 1.165-1.261 0-2.207-.194-2.838-.544zM64.084 6.521h-.057l.018-.04zm-4.099 8.893c-.748 1.631-1.497 2.718-2.167 3.3-.71.583-1.458.894-2.286.894-.67 0-1.222-.078-1.655-.272v-2.058c.512.31 1.024.466 1.537.466.433 0 .827-.155 1.182-.466.355-.31.749-.893 1.183-1.709l-4.375-9.048h2.483l2.68 6.097c.04.116.157.427.315.932 0-.078.118-.389.355-.932l2.562-6.097h2.228zm12.849-7.03H67.75v11.03h-2.168V6.52h7.252zm10.917 11.03v-.078h.04zm0-.078h-2.128V8.307h-3.192c-.473 3.107-.828 5.32-1.065 6.602-.276 1.282-.512 2.214-.788 2.835s-.63 1.049-1.064 1.36c-.434.31-.985.465-1.616.465-.512 0-.985-.039-1.38-.194V17.55c.316.155.631.233.986.233s.71-.194 1.025-.622c.315-.427.63-1.553.985-3.34.315-1.786.71-4.232 1.104-7.3h7.133zm8.67.233c-1.891 0-3.389-.582-4.532-1.825-1.142-1.204-1.694-2.757-1.694-4.699 0-2.058.59-3.728 1.734-4.97 1.143-1.244 2.72-1.865 4.69-1.865 1.852 0 3.31.583 4.454 1.786 1.103 1.204 1.694 2.758 1.694 4.7 0 2.097-.591 3.766-1.734 4.97-1.143 1.204-2.68 1.903-4.611 1.903zm.12-11.495c-1.183 0-2.169.427-2.917 1.32-.75.894-1.143 2.059-1.143 3.496 0 1.436.354 2.602 1.103 3.456.71.893 1.695 1.32 2.877 1.32 1.261 0 2.247-.427 2.956-1.242.71-.816 1.104-1.981 1.104-3.496 0-1.553-.355-2.718-1.064-3.572-.71-.855-1.656-1.243-2.917-1.243zm8.63 11.262V6.443h4.139c1.26 0 2.246.272 2.995.816.749.543 1.103 1.242 1.103 2.135 0 .738-.197 1.36-.63 1.903-.434.544-.985.932-1.734 1.165v.04c.906.116 1.616.426 2.167.97.552.544.789 1.282.789 2.175 0 1.087-.434 1.98-1.3 2.68-.868.699-2.01 1.01-3.35 1.01zm2.168-7.534h1.419c.749 0 1.34-.194 1.774-.543.433-.35.63-.855.63-1.476 0-1.088-.749-1.67-2.246-1.67h-1.577zm0 1.709v4.078h1.852c.789 0 1.42-.194 1.892-.544.434-.35.67-.893.67-1.515 0-1.32-.946-2.019-2.798-2.019z"/></svg>