<svg width="20" height="20" viewBox="0 0 20 20" fill="none" xmlns="http://www.w3.org/2000/svg"><path d="M16.132 2.106a9.994 9.994 0 00-16.027 9.34A10.002 10.002 0 0010 20a9.948 9.948 0 006.593-2.495H9.354l-.022-2.127c4.363-3.794 7.037-6.355 7.037-8.838 0-.92-.35-2.084-1.93-2.084-1.248 0-2.454.724-2.235 3.751H9.66c-.635-3.509 1.272-6.293 4.91-6.293a6.126 6.126 0 011.562.192zM20 9.997a9.971 9.971 0 00-.64-3.494c-.107 3.584-3.748 6.355-5.885 8.195h5.35A9.965 9.965 0 0020 9.997z" fill="#A2C617"/></svg>