<svg width="30" height="30" viewBox="0 0 30 30" fill="none" xmlns="http://www.w3.org/2000/svg"><path d="M15 30c8.284 0 15-6.716 15-15 0-8.284-6.716-15-15-15C6.716 0 0 6.716 0 15c0 8.284 6.716 15 15 15z" fill="#DC4E41"/><path d="M5.222 15.672c-.054 2.58 1.724 5.044 4.17 5.847 2.303.774 5.134.195 6.667-1.778 1.12-1.382 1.373-3.224 1.252-4.946-1.972-.018-3.945-.012-5.914-.009-.004.703 0 1.403.003 2.106 1.18.032 2.362.017 3.543.041-.298 1.022-.977 1.973-2.008 2.342-1.99.877-4.53-.27-5.156-2.357-.756-2 .482-4.412 2.525-4.993 1.267-.446 2.572.056 3.656.714a27.99 27.99 0 001.568-1.618c-1.232-1.03-2.814-1.662-4.442-1.523-3.192.038-5.986 2.985-5.864 6.174zm15.928-2.658c-.006.587-.012 1.178-.015 1.766-.59.005-1.178.008-1.766.011v1.76c.588.003 1.178.006 1.766.012.006.588.006 1.175.012 1.766.585 0 1.172-.003 1.76 0 .003-.59.006-1.178.012-1.769l1.766-.008v-1.76c-.588-.003-1.178-.006-1.766-.012-.003-.588-.01-1.179-.012-1.766H21.15z" fill="#DC4E41"/><path d="M5.271 15.008c-.12-3.19 2.673-6.136 5.865-6.175 1.627-.138 3.21.494 4.441 1.524a28.094 28.094 0 01-1.568 1.618c-1.084-.658-2.389-1.16-3.656-.714-2.043.581-3.28 2.994-2.524 4.993.626 2.088 3.165 3.234 5.156 2.357 1.03-.37 1.71-1.32 2.008-2.342-1.181-.023-2.363-.009-3.544-.041-.003-.703-.006-1.403-.003-2.106 1.97-.003 3.942-.009 5.915.009.121 1.722-.133 3.564-1.252 4.946-1.533 1.973-4.365 2.552-6.668 1.778-2.445-.803-4.223-3.266-4.17-5.847zm15.928-2.658h1.756c.004.588.01 1.179.013 1.766.587.006 1.178.01 1.765.012v1.76l-1.765.009c-.006.59-.01 1.178-.012 1.769-.588-.003-1.176 0-1.76 0-.006-.59-.006-1.178-.012-1.766-.588-.006-1.178-.009-1.766-.012v-1.76c.588-.003 1.175-.006 1.766-.012.003-.587.009-1.178.015-1.765z" fill="#fff"/></svg>