<svg width="20" height="20" viewBox="0 0 20 20" fill="none" xmlns="http://www.w3.org/2000/svg"><path d="M4.433 12.087l-.697 2.599-2.544.054A9.955 9.955 0 010 10a9.95 9.95 0 011.118-4.599l2.266.416.993 2.252A5.944 5.944 0 004.056 10c0 .735.133 1.438.377 2.087z" fill="#FBBB00"/><path d="M19.825 8.132a10.02 10.02 0 01-.044 3.956 9.999 9.999 0 01-3.52 5.71h-.001l-2.854-.145-.403-2.521a5.961 5.961 0 002.564-3.044h-5.348V8.132h9.606z" fill="#518EF8"/><path d="M16.26 17.799A9.958 9.958 0 0110 20.001a9.999 9.999 0 01-8.809-5.261l3.241-2.653a5.946 5.946 0 008.57 3.045L16.26 17.8z" fill="#28B446"/><path d="M16.384 2.302l-3.24 2.653a5.948 5.948 0 00-8.767 3.114L1.12 5.4A9.998 9.998 0 0110 0c2.427 0 4.651.864 6.383 2.302z" fill="#F14336"/></svg>