<svg xmlns="http://www.w3.org/2000/svg" width="20" height="20" viewBox="0 0 20 20"><path fill="#212121" d="M10 0c2.715 0 3.054.012 4.12.06 1.065.05 1.792.218 2.43.465a4.887 4.887 0 011.77 1.153 4.908 4.908 0 011.155 1.772c.246.635.414 1.362.464 2.427.048 1.066.06 1.407.06 4.123s-.012 3.056-.06 4.123c-.05 1.064-.218 1.79-.464 2.427a4.909 4.909 0 01-1.154 1.77 4.892 4.892 0 01-1.77 1.155c-.637.247-1.364.416-2.429.465-1.067.048-1.406.06-4.122.06s-3.057-.012-4.123-.06c-1.065-.05-1.792-.218-2.428-.465a4.896 4.896 0 01-1.77-1.154 4.9 4.9 0 01-1.154-1.772c-.247-.635-.416-1.362-.465-2.427C.012 13.056 0 12.716 0 10s.013-3.057.06-4.124c.048-1.064.217-1.79.465-2.427a4.91 4.91 0 011.154-1.77A4.897 4.897 0 013.45.524C4.086.278 4.813.109 5.877.06 6.944.012 7.285 0 10 0zm-.897 1.8c-1.863.001-2.22.014-3.143.056-.975.044-1.505.207-1.857.344-.467.182-.8.399-1.15.749-.35.35-.567.683-.749 1.15-.136.352-.3.881-.344 1.856-.048 1.055-.057 1.37-.057 4.04s.01 2.987.057 4.041c.044.975.208 1.504.344 1.856.182.467.399.8.749 1.15.35.35.683.567 1.15.748.353.137.882.3 1.857.345 1.054.047 1.37.058 4.04.058s2.987-.01 4.041-.058c.975-.045 1.505-.208 1.857-.345.467-.181.8-.398 1.15-.748a3.1 3.1 0 00.748-1.149c.136-.352.3-.881.344-1.856.048-1.054.058-1.37.058-4.04 0-2.668-.01-2.985-.058-4.04-.044-.974-.208-1.503-.344-1.855a3.104 3.104 0 00-.749-1.15 3.092 3.092 0 00-1.149-.748c-.352-.137-.882-.3-1.857-.345-1.054-.048-1.37-.057-4.04-.057h-.899zm5.036 2.862a1.2 1.2 0 112.4 0 1.2 1.2 0 01-2.4 0zM15.135 10a5.135 5.135 0 11-10.27 0 5.135 5.135 0 0110.27 0zm-1.802 0a3.333 3.333 0 10-6.666 0 3.333 3.333 0 006.666 0z"/></svg>