<svg width="33" height="24" viewBox="0 0 33 24" fill="none" xmlns="http://www.w3.org/2000/svg"><path d="M11.463 21.686l4.737 1.58 16.2-5.4V6.135l-4.04-1.347-1.897 1.897L30 7.866v8.27l-11.696 3.898 4.253-2.853 1.923-5.18-.902-2.43-1.867 1.867.209.562-1.344 3.62-4.376 2.935-.961-.644-1.73 1.73.587.393-.735-.245-1.898 1.897zm-5.527-4.372L2.4 16.135v-8.27l11.696-3.899L9.843 6.82 7.92 12l.901 2.429 1.867-1.867L10.48 12l1.343-3.619L16.2 5.445l.96.645 1.73-1.73-.586-.394.735.245 1.897-1.897L16.2.735 0 6.135v11.73l4.039 1.346 1.897-1.897z" fill="#fff"/><path d="M27.2 1l-22 22" stroke="#fff" stroke-width="2.4"/></svg>