<svg width="30" height="30" viewBox="0 0 30 30" fill="none" xmlns="http://www.w3.org/2000/svg"><path d="M26 0H4a4 4 0 00-4 4v22a4 4 0 004 4h22a4 4 0 004-4V4a4 4 0 00-4-4z" fill="#44678D"/><path d="M8.825 10.239c.614 1.44 1.393 2.798 2.418 4.016.136.163.307.307.488.424.264.172.512.112.62-.175.113-.3.217-.91.223-1.225a25.178 25.178 0 00-.049-2.19c-.03-.527-.228-.99-1.045-1.13-.253-.043-.276-.24-.114-.437.338-.41.808-.475 1.318-.501.827-.043 1.657-.008 2.484 0 .337.003.677.028 1.009.097.433.09.664.378.736.78.037.207.056.42.05.63-.021.9-.067 1.8-.077 2.699-.005.353.022.715.102 1.06.111.478.455.599.806.252.447-.44.84-.934 1.21-1.437.67-.915 1.172-1.918 1.604-2.953.223-.534.394-.65.999-.651a553.72 553.72 0 013.41 0c.202 0 .413.019.604.076.309.094.431.333.359.637-.169.71-.574 1.315-1.007 1.897-.696.932-1.425 1.842-2.137 2.764a3.393 3.393 0 00-.246.37c-.266.457-.248.713.14 1.093.62.606 1.281 1.172 1.88 1.795.435.452.838.943 1.183 1.46.436.654.166 1.27-.648 1.38-.513.068-3.017 0-3.146 0-.673-.003-1.264-.225-1.739-.66-.528-.483-1.009-1.013-1.516-1.517a4.157 4.157 0 00-.492-.425c-.415-.3-.822-.234-1.017.23-.165.397-.308 1.44-.315 1.53-.035.466-.347.763-.898.792-1.587.082-3.126-.086-4.56-.815-1.215-.618-2.185-1.492-3.026-2.51-1.335-1.618-2.39-3.397-3.352-5.228-.05-.093-1.024-2.064-1.05-2.157-.088-.311-.007-.609.27-.711.174-.064 3.389 0 3.442.002.513.027.863.232 1.08.738z" fill="#fff"/></svg>