<svg width="143" height="39" viewBox="0 0 143 39" fill="none" xmlns="http://www.w3.org/2000/svg"><path fill-rule="evenodd" clip-rule="evenodd" d="M97.803 6.664H143v21.06H97.803V6.664zm5.176 16.549h6.907v-1.696h-5.02V11.182h-1.887v12.031zm11.926-.952a3.683 3.683 0 01-1.073-1.298 4.07 4.07 0 01-.398-1.835v-7.946h1.87v7.946c0 .71.259 1.263.761 1.627a2.926 2.926 0 001.818.571 3.014 3.014 0 001.835-.571c.484-.364.727-.918.727-1.627v-7.946h1.904v7.946a4.306 4.306 0 01-.398 1.835 4.069 4.069 0 01-1.073 1.298 5.16 5.16 0 01-5.973 0zm17.345-3.756l3.203 4.708h2.371l-4.397-6.44 3.826-5.59h-2.354l-2.649 3.86-2.631-3.86h-2.371l3.808 5.59-4.38 6.44h2.372l3.202-4.708z" fill="#fff"/><path d="M46.617 22.746a5.885 5.885 0 01-1.922-1.299 6.007 6.007 0 01-1.298-1.904 5.936 5.936 0 01-.468-2.337 6.075 6.075 0 01.468-2.354 6.493 6.493 0 011.298-1.921 5.852 5.852 0 011.922-1.281 5.901 5.901 0 012.319-.468 6.075 6.075 0 012.354.468 6.232 6.232 0 011.922 1.28c.539.559.973 1.21 1.28 1.922.311.746.47 1.546.468 2.354a5.973 5.973 0 01-1.748 4.241 6.284 6.284 0 01-1.922 1.299c-.746.31-1.546.47-2.354.467a5.901 5.901 0 01-2.32-.467zm-.59-8.465a4.125 4.125 0 105.834 5.833 4.125 4.125 0 00-5.833-5.833zm22.763 8.932v-6.387l-3.773 5.608-3.773-5.608v6.387h-1.887V10.628l5.66 8.448 5.66-8.448v12.585h-1.886zm8.57-7.738v7.738h-1.887V10.61l7.564 8.292v-7.72h1.887v12.584l-7.565-8.292zm12.359 7.738v-12.03h1.87v12.03h-1.87zM21.17 3.964L17.206 0 0 17.206l17.206 17.207 3.964-3.964L7.928 17.206 21.17 3.964z" fill="#fff"/><path d="M28.596 17.691l4.293 2.597-4.743-1.645 2.874 4.12-3.67-3.427.952 4.933-1.956-4.622-1.142 4.882.086-5.02-3.03 3.998 2.13-4.535-4.397 2.406 3.791-3.271-4.985.415 4.795-1.454-4.743-1.644 4.968.605-3.653-3.427 4.293 2.597-1.938-4.622 2.873 4.102.104-5.002.952 4.916 2.13-4.536-1.143 4.882 3.79-3.272-3.011 3.999 4.795-1.454-4.38 2.423 11.027.208L26.12 3.323 12.238 17.208 26.121 31.09l13.554-13.554-11.078.156z" fill="#FFC907"/><path d="M46.288 36.126h.779a2.06 2.06 0 01-.52 1.23c-.294.363-.779.536-1.436.536a2.649 2.649 0 01-1.42-.467c-.485-.312-.744-.987-.762-2.008-.017-.727.104-1.299.364-1.662.211-.329.52-.583.883-.727a2.98 2.98 0 01.883-.156c.675 0 1.16.156 1.471.502.288.312.454.718.467 1.142h-.761a1.23 1.23 0 00-.294-.692c-.174-.208-.45-.311-.831-.294a1.16 1.16 0 00-1.039.536 2.994 2.994 0 00-.139 2.25c.09.26.252.488.468.659.207.176.472.268.744.26.398 0 .675-.122.848-.347.155-.228.256-.488.295-.762zm5.833-3.133h2.095c.536 0 .917.139 1.108.381.183.237.275.532.26.831-.02.148-.056.292-.105.433a1.073 1.073 0 01-.657.571v.035c.25.034.48.15.657.329a1.092 1.092 0 01.312.848c.023.292-.063.582-.242.813a1.108 1.108 0 01-.606.399 2.996 2.996 0 01-.814.103h-2.008v-4.743zm.762.693v1.28h1.125c.191 0 .38-.042.554-.12.156-.087.242-.26.242-.537a.519.519 0 00-.207-.485.987.987 0 00-.606-.138h-1.108zm0 1.921v1.454h1.16a1.54 1.54 0 00.657-.138c.19-.087.277-.294.277-.589a.64.64 0 00-.242-.571 1.212 1.212 0 00-.675-.156h-1.177zm8.932-.64h2.302v.675h-2.302v1.402h2.631v.692h-3.393v-4.743h3.341v.71h-2.58v1.264zm8.499-1.264h-1.402v-.71h3.6v.71h-1.419v4.033h-.779v-4.033zm14.195 1.367h.052l1.8-2.077h.917l-2.025 2.164 2.198 2.58h-1.004l-1.886-2.372h-.052v2.371h-.762v-4.743h.762v2.078zm8.361 1.61l-.347 1.056h-.813l1.696-4.743h.796l1.714 4.743h-.83l-.364-1.055H92.87zm.224-.675h1.42l-.64-1.921-.052-.312h-.052l-.052.312-.624 1.921zm9.729 1.731l.035-2.336h-.052l-1.714 2.336h-.918l1.991-2.561-1.904-2.182h.883l1.662 2.078h.052l-.035-2.078h.779l-.052 2.078h.052l1.662-2.078h.882l-1.904 2.181 2.008 2.562h-.917l-1.731-2.336h-.052l.052 2.336h-.779zm11.875-.692h.623l-.052 1.766h-.675v-1.074h-3.341v1.074h-.658l-.052-1.766h.45c.244-.36.425-.758.537-1.177.154-.605.23-1.228.225-1.852v-1.022h2.925l.018 4.051zm-.779-3.358h-1.42v.571a8.211 8.211 0 01-.173 1.662 4.25 4.25 0 01-.485 1.142h2.078v-3.375zm8.309 4.171c-.3 0-.598-.047-.883-.138a1.867 1.867 0 01-.9-.71c-.277-.363-.416-.917-.416-1.644 0-1.056.243-1.731.727-2.043a2.91 2.91 0 011.472-.45c.52.01 1.025.173 1.454.467.502.312.744.987.744 2.026 0 1.038-.242 1.713-.744 2.025a2.77 2.77 0 01-1.454.467zm0-.657c.519 0 .883-.19 1.073-.554.199-.398.3-.837.294-1.281a2.725 2.725 0 00-.294-1.281c-.19-.364-.554-.537-1.073-.537-.52 0-.883.173-1.074.537a2.75 2.75 0 00-.294 1.28c-.005.445.096.884.294 1.282.191.363.554.554 1.074.554zm8.101.536h-.744v-4.743h1.107l1.126 3.393.052.537h.069l.052-.537 1.142-3.393h1.073v4.743h-.727v-3.392l.052-.537h-.052l-.155.537-1.126 3.392h-.588l-1.143-3.392-.155-.537h-.035l.052.537v3.392zm8.828-4.743h.883l1.073 2.562.069.346h.035l.052-.346.883-2.562H143l-1.489 3.843c-.092.296-.266.56-.502.762-.214.142-.47.21-.727.19a2.92 2.92 0 01-.571-.052v-.692c.136.037.275.06.415.07.329 0 .554-.208.658-.624l-1.627-3.497z" fill="#fff"/></svg>